<svg xmlns="http://www.w3.org/2000/svg" viewBox="0 0 600 220" width="600" height="220">
  <rect width="600" height="220" fill="#ffffff" rx="12"/>

  <!-- Title -->
  <text x="300" y="36" font-family="sans-serif" font-size="15" font-weight="600" fill="#111827" text-anchor="middle">Request Flow (Light Mode)</text>

  <!-- Boxes -->
  <rect x="30" y="60" width="120" height="44" rx="8" fill="#f3f4f6" stroke="#d1d5db" stroke-width="1.5"/>
  <text x="90" y="87" font-family="sans-serif" font-size="13" fill="#374151" text-anchor="middle">Browser</text>

  <rect x="240" y="60" width="120" height="44" rx="8" fill="#eff6ff" stroke="#bfdbfe" stroke-width="1.5"/>
  <text x="300" y="87" font-family="sans-serif" font-size="13" fill="#1d4ed8" text-anchor="middle">API Server</text>

  <rect x="450" y="60" width="120" height="44" rx="8" fill="#f0fdf4" stroke="#bbf7d0" stroke-width="1.5"/>
  <text x="510" y="87" font-family="sans-serif" font-size="13" fill="#15803d" text-anchor="middle">Database</text>

  <!-- Arrows -->
  <line x1="150" y1="82" x2="238" y2="82" stroke="#6b7280" stroke-width="1.5" marker-end="url(#arr-light)"/>
  <line x1="360" y1="82" x2="448" y2="82" stroke="#6b7280" stroke-width="1.5" marker-end="url(#arr-light)"/>

  <!-- Return arrows -->
  <line x1="238" y1="94" x2="150" y2="94" stroke="#9ca3af" stroke-width="1.5" stroke-dasharray="4 3" marker-end="url(#arr-light-gray)"/>
  <line x1="448" y1="94" x2="360" y2="94" stroke="#9ca3af" stroke-width="1.5" stroke-dasharray="4 3" marker-end="url(#arr-light-gray)"/>

  <!-- Labels -->
  <text x="194" y="76" font-family="sans-serif" font-size="10" fill="#6b7280" text-anchor="middle">request</text>
  <text x="194" y="108" font-family="sans-serif" font-size="10" fill="#9ca3af" text-anchor="middle">response</text>
  <text x="404" y="76" font-family="sans-serif" font-size="10" fill="#6b7280" text-anchor="middle">query</text>
  <text x="404" y="108" font-family="sans-serif" font-size="10" fill="#9ca3af" text-anchor="middle">result</text>

  <!-- Caption -->
  <text x="300" y="180" font-family="sans-serif" font-size="11" fill="#9ca3af" text-anchor="middle">Shown in light mode — white background, dark text</text>

  <defs>
    <marker id="arr-light" markerWidth="8" markerHeight="8" refX="6" refY="3" orient="auto">
      <path d="M0,0 L0,6 L8,3 z" fill="#6b7280"/>
    </marker>
    <marker id="arr-light-gray" markerWidth="8" markerHeight="8" refX="6" refY="3" orient="auto">
      <path d="M0,0 L0,6 L8,3 z" fill="#9ca3af"/>
    </marker>
  </defs>
</svg>
